{"title":"Largo Winch 1 &amp; 2 BDRip 1080p [mkvonly]","uid":6584922,"size":10324633322,"categoryP":"video","categoryS":"hd___movies","magnet":"?xt=urn:btih:082a1bbdf8b64779c63334207ceff8fce866f18b&amp;dn=Largo+Winch+1+%26+2+BDRip+1080p+%5Bmkvonly%5D&amp;tr=udp%3A%2F%2Ftracker.openbittorrent.com%3A80&amp;tr=udp%3A%2F%2Fopen.demonii.com%3A1337&amp;tr=udp%3A%2F%2Ftracker.coppersurfer.tk%3A6969&amp;tr=udp%3A%2F%2Fexodus.desync.com%3A6969","seeders":1,"leechers":0,"uploader":"FatFreddy69","files":-1,"time":1312567312,"description":"Largo Winch 1 &amp; 2 BDRip 1080p [mkvonly]\n\n~~~~~~~~~~~~~~~~~~~~~~~~~~~~~~~~~~~~~~~~~~~~~~~~~~~~~~~~~~~~~~~~~~~~~~~~~~~~\n\nLargo Winch (2008) [mkvonly]\n &lt;a href=&quot;\nhttp://www.bilderkiste.org/show/original/7131255878581/2008.jpg&quot; rel=&quot;nofollow&quot; target=&quot;_NEW&quot;&gt;\nhttp://www.bilderkiste.org/show/original/7131255878581/2008.jpg&lt;/a&gt;\n\nFormat                           : Matroska\nFile size                        : 4.60 GiB\nDuration                         : 1h 48mn\nOverall bit rate                 : 6 048 Kbps\n\nVideo\nDisplay aspect ratio             : 1920 x 820 (2.35:1)\nFrame rate                       : 23.976 fps\nStream size                      : 3.93 GiB (86%)\nWriting library                  : x264 core 112\nEncoding settings                : cabac=1 / ref=5 / deblock=1:-1:-1 / me=tesa / subme=10 / me_range=64 / trellis=2 / 8x8dct=1 / bframes=6 / b_pyramid=1 / b_adapt=2 / rc=2pass / mbtree=1 / bitrate=5300 /\n\nAudio  English + some French, DTS 768 KB/s, 587 MiB (12%)\n\nSubtitles: English, French for non-French speaking\n\n~~~~~~~~~~~~~~~~~~~~~~~~~~~~~~~~~~~~~~~~~~~~~~~~~~~~~~~~~~~~~~~~~~~~~~~~~~~~~~~~~~\n\nLargo Winch (Tome 2) (2011) [mkvonly]\n &lt;a href=&quot;\nhttp://www.bilderkiste.org/show/original/2131255880989/2011.jpg&quot; rel=&quot;nofollow&quot; target=&quot;_NEW&quot;&gt;\nhttp://www.bilderkiste.org/show/original/2131255880989/2011.jpg&lt;/a&gt;\n\nFormat                           : Matroska\nFile size                        : 5.02 GiB\nDuration                         : 1h 58mn\n\nVideo\nBit rate                         : 5 300 Kbps\nDisplay aspect ratio             : 1920 x 800 (2.40:1)\nFrame rate                       : 23.976 fps\nStream size                      : 4.29 GiB (86%)\nTitle                            : Largo Winch (Tome 2) (2011) [mkvonly]\nWriting library                  : x264 core 88\nEncoding settings                : cabac=1 / ref=5 / deblock=1:-1:-1 / me=umh / subme=9 / me_range=64 / chroma_me=1 / trellis=2 / 8x8dct=1 / bframes=7 / b_pyramid=2 / rc=2pass / mbtree=1 / bitrate=5300 /\n\nAudio  English + some French, DTS 768 KB/s, 640 MiB (12%)\n\nSubtitles: English, French srt, French full VobSub left-center-right tricolor (recomended)\n\nNote: These are the original Audio tracks, (English-French).\nThe only French audios have dubbed parts over the English so they are removed.\n\nBoth were ripped from BD50 not from some crappy shrinked BD25 or remux etc.\nAll Largo Winch (Tome 2) rips floating around were ripped from an awful fast-shrinked remux.\n\nThose who understand Encoding settings will get an idea about the quality of these rips ;-)","torrent":{"xt":"urn:btih:082a1bbdf8b64779c63334207ceff8fce866f18b","amp;dn":"Largo+Winch+1+%26+2+BDRip+1080p+%5Bmkvonly%5D","amp;tr":["udp%3A%2F%2Ftracker.openbittorrent.com%3A80","udp%3A%2F%2Fopen.demonii.com%3A1337","udp%3A%2F%2Ftracker.coppersurfer.tk%3A6969","udp%3A%2F%2Fexodus.desync.com%3A6969"],"infoHash":"082a1bbdf8b64779c63334207ceff8fce866f18b","infoHashBuffer":{"type":"Buffer","data":[8,42,27,189,248,182,71,121,198,51,52,32,124,239,248,252,232,102,241,139]},"announce":[],"urlList":[]}}